# Blender 4.5.4 LTS
# www.blender.org
mtllib testmap.mtl
o Cube
v -5.849052 -0.000001 4.738548
v -0.017835 -0.000001 -0.499302
v -5.849052 -0.000001 -6.601709
v -1.921909 -0.000001 -0.946429
v 10.726675 -0.000001 8.987653
v -0.718879 -0.000001 -15.312334
v 8.055714 -0.000001 -16.374390
v -0.014134 -0.000001 9.879003
v 3.843468 -0.000001 -4.955297
v 4.470785 1.535914 -0.474661
v 1.195506 0.836776 1.618495
v 2.072556 -0.000001 3.911660
v -0.370316 -0.000001 3.947849
v -5.849052 -0.000001 -0.633830
v 16.342806 -0.000001 0.841031
v 0.537656 -0.000001 -4.051644
v 6.281055 -0.000001 -2.313782
v 6.085774 -0.000001 1.062721
v 6.303882 -0.000001 3.557551
v -3.101412 -0.000001 0.721354
v -0.017835 1.789909 -0.499302
v 3.843468 1.789909 -4.955297
v -1.921909 1.789909 -0.946429
v 0.537656 1.789909 -4.051644
v 19.201336 -0.000001 -21.334368
v 27.488428 -0.000001 -4.118948
v 8.055714 -0.000001 -18.232138
v 19.201336 -0.000001 -23.192114
v 18.279663 -0.000001 3.363135
v 29.425285 -0.000001 -1.596843
v 24.692541 -0.000001 -23.639532
v 32.979633 -0.000001 -6.424111
v 24.692541 -0.000001 -25.497278
v 34.916489 -0.000001 -3.902007
v 19.201336 17.736145 -21.334368
v 19.201336 17.736145 -23.192114
v 29.425285 17.736145 -1.596843
v 27.488428 17.736145 -4.118948
v 24.692541 17.736145 -23.639532
v 24.692541 17.736145 -25.497278
v 34.916489 17.736145 -3.902007
v 32.979633 17.736145 -6.424111
v 40.397049 -0.000001 -29.470432
v 48.684143 -0.000001 -12.255011
v 40.397049 -0.000001 -31.328178
v 50.620995 -0.000001 -9.732906
vn 0.3762 0.8591 -0.3471
vn -0.2286 -0.0000 0.9735
vn -0.0000 1.0000 -0.0000
vn 0.1992 0.8858 0.4191
vn -0.3565 0.8980 -0.2579
vn -0.2637 -0.0000 -0.9646
vn 0.7557 -0.0000 0.6549
vn -0.7839 -0.0000 -0.6209
vn 0.0051 0.9400 0.3411
vn -0.2580 0.9399 -0.2236
vn -0.1205 0.9449 -0.3043
vn -0.2259 0.9552 0.1913
vn 0.6690 0.7422 0.0387
vn 0.3871 -0.0000 0.9221
vn 0.7931 -0.0000 -0.6091
vn -0.7931 -0.0000 0.6091
vn -1.0000 -0.0000 -0.0000
vn -0.3871 -0.0000 -0.9221
vn 1.0000 -0.0000 -0.0000
vt 0.299266 0.536296
vt 0.310545 0.635073
vt 0.343093 0.594529
vt 0.229842 0.634530
vt 0.195608 0.624673
vt 0.343503 0.723965
vt 0.339582 0.668965
vt 0.267426 0.731771
vt 0.229909 0.750000
vt 0.223505 0.732569
vt 0.125000 0.500000
vt 0.217238 0.500000
vt 0.239829 0.556217
vt 0.249566 0.687522
vt 0.174401 0.661440
vt 0.125000 0.750000
vt 0.125000 0.631564
vt 0.375000 0.750000
vt 0.375000 0.664078
vt 0.375000 0.500000
vt 0.000000 0.000000
s 0
f 9/1/1 10/2/1 17/3/1
f 2/4/2 21/4/2 23/5/2 4/5/2
f 19/6/3 18/7/3 12/8/3
f 8/9/3 12/8/3 13/10/3
f 3/11/3 4/5/3 6/12/3
f 24/13/3 21/4/3 22/1/3
f 10/2/4 11/14/4 12/8/4 18/7/4
f 11/14/5 10/2/5 9/1/5
f 16/13/6 24/13/6 22/1/6 9/1/6
f 9/1/7 22/1/7 21/4/7 2/4/7
f 4/5/8 23/5/8 24/13/8 16/13/8
f 11/14/9 13/10/9 12/8/9
f 11/14/10 9/1/10 2/4/10
f 20/15/3 2/4/3 4/5/3
f 11/14/11 2/4/11 20/15/11
f 13/10/3 1/16/3 8/9/3
f 20/15/12 13/10/12 11/14/12
f 14/17/3 1/16/3 20/15/3
f 20/15/3 1/16/3 13/10/3
f 5/18/3 12/8/3 8/9/3
f 5/18/3 19/6/3 12/8/3
f 15/19/3 19/6/3 5/18/3
f 17/3/13 10/2/13 18/7/13
f 15/19/3 18/7/3 19/6/3
f 7/20/3 9/1/3 17/3/3
f 15/19/3 17/3/3 18/7/3
f 7/20/3 17/3/3 15/19/3
f 6/12/3 9/1/3 7/20/3
f 6/12/3 16/13/3 9/1/3
f 4/5/3 16/13/3 6/12/3
f 23/5/3 21/4/3 24/13/3
f 14/17/3 4/5/3 3/11/3
f 20/15/3 4/5/3 14/17/3
f 7/20/3 15/19/3 26/19/3 25/20/3
f 7/20/3 25/20/3 28/20/3 27/20/3
f 26/19/3 15/19/3 29/19/3 30/19/3
f 30/21/14 34/21/14 41/21/14 37/21/14
f 25/20/14 31/20/14 39/20/14 35/20/14
f 25/20/3 26/19/3 32/19/3 31/20/3
f 38/19/3 37/19/3 41/19/3 42/19/3
f 36/20/3 35/20/3 39/20/3 40/20/3
f 34/21/15 32/21/15 42/21/15 41/21/15
f 26/19/16 30/19/16 37/19/16 38/19/16
f 28/20/17 25/20/17 35/20/17 36/20/17
f 33/21/18 28/21/18 36/21/18 40/21/18
f 32/19/18 26/19/18 38/19/18 42/19/18
f 31/21/19 33/21/19 40/21/19 39/21/19
f 32/21/3 34/21/3 46/21/3 44/21/3
f 33/21/3 31/21/3 43/21/3 45/21/3
f 31/20/3 32/19/3 44/19/3 43/20/3
o Cube.001
v 47.097099 -4.889009 -32.178143
v 47.097099 -0.180684 -32.178143
v 55.976051 -4.889009 -36.902843
v 55.976051 -0.180684 -36.902843
v 54.627762 -4.889009 -18.026043
v 54.627762 -0.180684 -18.026043
v 63.506714 -4.889009 -22.750744
v 63.506714 -0.180684 -22.750744
vn -0.4698 -0.0000 -0.8828
vn 0.8828 -0.0000 -0.4698
vn 0.4698 -0.0000 0.8828
vn -0.8828 -0.0000 0.4698
vn -0.0000 -1.0000 -0.0000
vn -0.0000 1.0000 -0.0000
vt 0.375000 0.000000
vt 0.625000 0.000000
vt 0.625000 0.250000
vt 0.375000 0.250000
vt 0.625000 0.500000
vt 0.375000 0.500000
vt 0.625000 0.750000
vt 0.375000 0.750000
vt 0.625000 1.000000
vt 0.375000 1.000000
vt 0.125000 0.500000
vt 0.125000 0.750000
vt 0.875000 0.500000
vt 0.875000 0.750000
s 0
f 47/22/20 48/23/20 50/24/20 49/25/20
f 49/25/21 50/24/21 54/26/21 53/27/21
f 53/27/22 54/26/22 52/28/22 51/29/22
f 51/29/23 52/28/23 48/30/23 47/31/23
f 49/32/24 53/27/24 51/29/24 47/33/24
f 54/26/25 50/34/25 48/35/25 52/28/25
o Cube.002
v 59.610424 -6.032140 -42.030109
v 59.610424 -1.323816 -42.030109
v 68.489372 -6.032140 -46.754810
v 68.489372 -1.323816 -46.754810
v 67.141090 -6.032140 -27.878010
v 67.141090 -1.323816 -27.878010
v 76.020042 -6.032140 -32.602711
v 76.020042 -1.323816 -32.602711
vn -0.4698 -0.0000 -0.8828
vn 0.8828 -0.0000 -0.4698
vn 0.4698 -0.0000 0.8828
vn -0.8828 -0.0000 0.4698
vn -0.0000 -1.0000 -0.0000
vn -0.0000 1.0000 -0.0000
vt 0.375000 0.000000
vt 0.625000 0.000000
vt 0.625000 0.250000
vt 0.375000 0.250000
vt 0.625000 0.500000
vt 0.375000 0.500000
vt 0.625000 0.750000
vt 0.375000 0.750000
vt 0.625000 1.000000
vt 0.375000 1.000000
vt 0.125000 0.500000
vt 0.125000 0.750000
vt 0.875000 0.500000
vt 0.875000 0.750000
s 0
f 55/36/26 56/37/26 58/38/26 57/39/26
f 57/39/27 58/38/27 62/40/27 61/41/27
f 61/41/28 62/40/28 60/42/28 59/43/28
f 59/43/29 60/42/29 56/44/29 55/45/29
f 57/46/30 61/41/30 59/43/30 55/47/30
f 62/40/31 58/48/31 56/49/31 60/42/31
