# Blender 4.5.4 LTS
# www.blender.org
mtllib menumap.mtl
o Cube
v -20.318491 1.305201 19.702370
v -20.318491 1.305201 -20.147438
v 20.920458 1.305201 -43.353603
v 20.920458 1.305201 19.702370
v -20.318491 1.305201 -43.353603
v 20.920458 1.305201 -20.147438
v -45.840527 1.305201 19.702370
v -45.840527 1.305201 -20.147438
v -39.771477 0.546281 -38.906498
v -20.318491 1.305201 57.148808
v 20.920458 1.305201 57.148808
v -37.011742 3.992216 46.315975
v 41.408161 1.977537 -45.800011
v 51.650646 1.305201 19.702370
v 51.650646 1.305201 -20.147438
v 34.719086 2.916321 44.704128
v 35.147423 29.104231 -97.162148
v -10.158367 18.837221 -88.370178
v -32.500393 22.369524 -86.460663
v 68.206314 20.771826 -83.723732
v 80.323669 36.145824 -51.145485
v 80.323669 36.145824 11.910488
v 83.700363 18.504869 -10.769425
v 72.379318 24.111334 45.340721
v -7.898427 34.965557 88.964363
v 26.292379 20.844328 82.089035
v -34.288181 20.262976 75.521729
v 64.070709 34.965557 88.964363
v -72.685501 50.008160 12.959104
v -70.790344 33.656143 -35.314140
v -80.087280 52.343731 -50.668327
v -70.083679 43.274921 51.900742
vn -0.0000 1.0000 -0.0000
vn -0.0390 0.9992 -0.0000
vn -0.0000 0.9949 -0.1005
vn -0.1160 0.9933 -0.0000
vn -0.0000 0.9997 0.0262
vn 0.0315 0.8854 0.4638
vn 0.1221 0.9049 0.4077
vn -0.0675 0.9131 0.4022
vn -0.6477 0.7485 -0.1422
vn -0.6276 0.7397 -0.2426
vn -0.5663 0.7567 0.3267
vn -0.3038 0.8306 -0.4668
vn 0.1577 0.7447 -0.6485
vn 0.0709 0.7166 -0.6939
vn 0.8223 0.5585 -0.1089
vn 0.7171 0.6426 0.2699
vn 0.8495 0.5216 -0.0785
vn -0.6642 0.7405 -0.1024
vn -0.4647 0.8345 -0.2961
vn 0.6688 0.6212 -0.4084
vn 0.6823 0.6193 0.3885
vn -0.0000 0.9979 -0.0643
vn -0.0000 0.9992 -0.0404
vn -0.0328 0.9995 -0.0000
vn 0.1589 0.9873 -0.0000
vt 0.875000 0.500000
vt 0.625000 0.500000
vt 0.875000 0.750000
vt 0.625000 0.750000
s 0
usemtl Material.002
f 2/1/1 6/2/1 3/2/1
f 2/1/1 1/3/1 4/4/1
f 2/1/2 5/1/2 9/1/2
f 2/1/1 8/1/1 7/3/1
f 1/3/3 7/3/3 12/3/3
f 4/4/1 1/3/1 10/3/1
f 4/4/4 11/4/4 16/4/4
f 4/4/1 14/4/1 15/2/1
f 6/2/5 15/2/5 13/2/5
f 3/2/6 13/2/6 20/2/6 17/2/6
f 9/1/7 5/1/7 18/1/7 19/1/7
f 5/1/8 3/2/8 17/2/8 18/1/8
f 14/4/9 16/4/9 24/4/9 22/4/9
f 15/2/10 14/4/10 22/4/10 23/2/10
f 13/2/11 15/2/11 23/2/11 21/2/11
f 16/4/12 11/4/12 26/4/12 28/4/12
f 10/3/13 12/3/13 27/3/13 25/3/13
f 11/4/14 10/3/14 25/3/14 26/4/14
f 12/3/15 7/3/15 29/3/15 32/3/15
f 8/1/16 9/1/16 31/1/16 30/1/16
f 7/3/17 8/1/17 30/1/17 29/3/17
f 13/2/18 21/2/18 20/2/18
f 16/4/19 28/4/19 24/4/19
f 12/3/20 32/3/20 27/3/20
f 9/1/21 19/1/21 31/1/21
f 14/4/22 4/4/22 16/4/22
f 6/2/1 2/1/1 4/4/1
f 8/1/23 2/1/23 9/1/23
f 1/3/1 2/1/1 7/3/1
f 5/1/1 2/1/1 3/2/1
f 3/2/24 6/2/24 13/2/24
f 6/2/1 4/4/1 15/2/1
f 11/4/1 4/4/1 10/3/1
f 10/3/25 1/3/25 12/3/25
o Cube.001
v -48.414185 -13.585314 -37.908653
v -48.414185 53.523499 -37.908653
v -48.414185 -13.585314 -59.508415
v -48.414185 53.523499 -59.508415
v -25.909241 -13.585314 -37.908653
v -25.909241 53.523499 -37.908653
v -25.909241 -13.585314 -59.508415
v -25.909241 53.523499 -59.508415
vn -1.0000 -0.0000 -0.0000
vn -0.0000 -0.0000 -1.0000
vn 1.0000 -0.0000 -0.0000
vn -0.0000 -0.0000 1.0000
vn -0.0000 -1.0000 -0.0000
vn -0.0000 1.0000 -0.0000
vt 0.375000 0.000000
vt 0.625000 0.000000
vt 0.625000 0.250000
vt 0.375000 0.250000
vt 0.625000 0.500000
vt 0.375000 0.500000
vt 0.625000 0.750000
vt 0.375000 0.750000
vt 0.625000 1.000000
vt 0.375000 1.000000
vt 0.125000 0.500000
vt 0.125000 0.750000
vt 0.875000 0.500000
vt 0.875000 0.750000
s 0
usemtl Material.001
f 33/5/26 34/6/26 36/7/26 35/8/26
f 35/8/27 36/7/27 40/9/27 39/10/27
f 39/10/28 40/9/28 38/11/28 37/12/28
f 37/12/29 38/11/29 34/13/29 33/14/29
f 35/15/30 39/10/30 37/12/30 33/16/30
f 40/9/31 36/17/31 34/18/31 38/11/31
o Cube.002
v 9.059128 -4.472683 -67.163979
v 9.059128 62.636127 -67.163979
v 9.059128 -4.472683 -88.763741
v 9.059128 62.636127 -88.763741
v 31.564072 -4.472683 -67.163979
v 31.564072 62.636127 -67.163979
v 31.564072 -4.472683 -88.763741
v 31.564072 62.636127 -88.763741
vn -1.0000 -0.0000 -0.0000
vn -0.0000 -0.0000 -1.0000
vn 1.0000 -0.0000 -0.0000
vn -0.0000 -0.0000 1.0000
vn -0.0000 -1.0000 -0.0000
vn -0.0000 1.0000 -0.0000
vt 0.375000 0.000000
vt 0.625000 0.000000
vt 0.625000 0.250000
vt 0.375000 0.250000
vt 0.625000 0.500000
vt 0.375000 0.500000
vt 0.625000 0.750000
vt 0.375000 0.750000
vt 0.625000 1.000000
vt 0.375000 1.000000
vt 0.125000 0.500000
vt 0.125000 0.750000
vt 0.875000 0.500000
vt 0.875000 0.750000
s 0
usemtl Material.001
f 41/19/32 42/20/32 44/21/32 43/22/32
f 43/22/33 44/21/33 48/23/33 47/24/33
f 47/24/34 48/23/34 46/25/34 45/26/34
f 45/26/35 46/25/35 42/27/35 41/28/35
f 43/29/36 47/24/36 45/26/36 41/30/36
f 48/23/37 44/31/37 42/32/37 46/25/37
o Cube.003
v 38.023109 -27.368610 -64.798805
v 38.023109 39.740200 -64.798805
v 38.023109 -27.368610 -86.398567
v 38.023109 39.740200 -86.398567
v 60.528053 -27.368610 -64.798805
v 60.528053 39.740200 -64.798805
v 60.528053 -27.368610 -86.398567
v 60.528053 39.740200 -86.398567
vn -1.0000 -0.0000 -0.0000
vn -0.0000 -0.0000 -1.0000
vn 1.0000 -0.0000 -0.0000
vn -0.0000 -0.0000 1.0000
vn -0.0000 -1.0000 -0.0000
vn -0.0000 1.0000 -0.0000
vt 0.375000 0.000000
vt 0.625000 0.000000
vt 0.625000 0.250000
vt 0.375000 0.250000
vt 0.625000 0.500000
vt 0.375000 0.500000
vt 0.625000 0.750000
vt 0.375000 0.750000
vt 0.625000 1.000000
vt 0.375000 1.000000
vt 0.125000 0.500000
vt 0.125000 0.750000
vt 0.875000 0.500000
vt 0.875000 0.750000
s 0
usemtl Material.001
f 49/33/38 50/34/38 52/35/38 51/36/38
f 51/36/39 52/35/39 56/37/39 55/38/39
f 55/38/40 56/37/40 54/39/40 53/40/40
f 53/40/41 54/39/41 50/41/41 49/42/41
f 51/43/42 55/38/42 53/40/42 49/44/42
f 56/37/43 52/45/43 50/46/43 54/39/43
o Cube.004
v 76.774033 -8.193598 -21.757795
v 76.774033 58.915215 -21.757795
v 76.774033 -8.193598 -43.357559
v 76.774033 58.915215 -43.357559
v 99.278976 -8.193598 -21.757795
v 99.278976 58.915215 -21.757795
v 99.278976 -8.193598 -43.357559
v 99.278976 58.915215 -43.357559
vn -1.0000 -0.0000 -0.0000
vn -0.0000 -0.0000 -1.0000
vn 1.0000 -0.0000 -0.0000
vn -0.0000 -0.0000 1.0000
vn -0.0000 -1.0000 -0.0000
vn -0.0000 1.0000 -0.0000
vt 0.375000 0.000000
vt 0.625000 0.000000
vt 0.625000 0.250000
vt 0.375000 0.250000
vt 0.625000 0.500000
vt 0.375000 0.500000
vt 0.625000 0.750000
vt 0.375000 0.750000
vt 0.625000 1.000000
vt 0.375000 1.000000
vt 0.125000 0.500000
vt 0.125000 0.750000
vt 0.875000 0.500000
vt 0.875000 0.750000
s 0
usemtl Material.001
f 57/47/44 58/48/44 60/49/44 59/50/44
f 59/50/45 60/49/45 64/51/45 63/52/45
f 63/52/46 64/51/46 62/53/46 61/54/46
f 61/54/47 62/53/47 58/55/47 57/56/47
f 59/57/48 63/52/48 61/54/48 57/58/48
f 64/51/49 60/59/49 58/60/49 62/53/49
o Cube.005
v 68.921173 1.109276 40.791977
v 68.921173 68.218086 40.791977
v 68.921173 1.109276 19.192213
v 68.921173 68.218086 19.192213
v 91.426117 1.109276 40.791977
v 91.426117 68.218086 40.791977
v 91.426117 1.109276 19.192213
v 91.426117 68.218086 19.192213
vn -1.0000 -0.0000 -0.0000
vn -0.0000 -0.0000 -1.0000
vn 1.0000 -0.0000 -0.0000
vn -0.0000 -0.0000 1.0000
vn -0.0000 -1.0000 -0.0000
vn -0.0000 1.0000 -0.0000
vt 0.375000 0.000000
vt 0.625000 0.000000
vt 0.625000 0.250000
vt 0.375000 0.250000
vt 0.625000 0.500000
vt 0.375000 0.500000
vt 0.625000 0.750000
vt 0.375000 0.750000
vt 0.625000 1.000000
vt 0.375000 1.000000
vt 0.125000 0.500000
vt 0.125000 0.750000
vt 0.875000 0.500000
vt 0.875000 0.750000
s 0
usemtl Material.001
f 65/61/50 66/62/50 68/63/50 67/64/50
f 67/64/51 68/63/51 72/65/51 71/66/51
f 71/66/52 72/65/52 70/67/52 69/68/52
f 69/68/53 70/67/53 66/69/53 65/70/53
f 67/71/54 71/66/54 69/68/54 65/72/54
f 72/65/55 68/73/55 66/74/55 70/67/55
o Cube.006
v 51.067509 -12.069935 81.556053
v 51.067509 55.038876 81.556053
v 51.067509 -12.069935 59.956291
v 51.067509 55.038876 59.956291
v 73.572449 -12.069935 81.556053
v 73.572449 55.038876 81.556053
v 73.572449 -12.069935 59.956291
v 73.572449 55.038876 59.956291
vn -1.0000 -0.0000 -0.0000
vn -0.0000 -0.0000 -1.0000
vn 1.0000 -0.0000 -0.0000
vn -0.0000 -0.0000 1.0000
vn -0.0000 -1.0000 -0.0000
vn -0.0000 1.0000 -0.0000
vt 0.375000 0.000000
vt 0.625000 0.000000
vt 0.625000 0.250000
vt 0.375000 0.250000
vt 0.625000 0.500000
vt 0.375000 0.500000
vt 0.625000 0.750000
vt 0.375000 0.750000
vt 0.625000 1.000000
vt 0.375000 1.000000
vt 0.125000 0.500000
vt 0.125000 0.750000
vt 0.875000 0.500000
vt 0.875000 0.750000
s 0
usemtl Material.001
f 73/75/56 74/76/56 76/77/56 75/78/56
f 75/78/57 76/77/57 80/79/57 79/80/57
f 79/80/58 80/79/58 78/81/58 77/82/58
f 77/82/59 78/81/59 74/83/59 73/84/59
f 75/85/60 79/80/60 77/82/60 73/86/60
f 80/79/61 76/87/61 74/88/61 78/81/61
o Cube.007
v 4.496288 -0.412655 101.910789
v 4.496288 66.696152 101.910789
v 4.496288 -0.412655 80.311028
v 4.496288 66.696152 80.311028
v 27.001232 -0.412655 101.910789
v 27.001232 66.696152 101.910789
v 27.001232 -0.412655 80.311028
v 27.001232 66.696152 80.311028
vn -1.0000 -0.0000 -0.0000
vn -0.0000 -0.0000 -1.0000
vn 1.0000 -0.0000 -0.0000
vn -0.0000 -0.0000 1.0000
vn -0.0000 -1.0000 -0.0000
vn -0.0000 1.0000 -0.0000
vt 0.375000 0.000000
vt 0.625000 0.000000
vt 0.625000 0.250000
vt 0.375000 0.250000
vt 0.625000 0.500000
vt 0.375000 0.500000
vt 0.625000 0.750000
vt 0.375000 0.750000
vt 0.625000 1.000000
vt 0.375000 1.000000
vt 0.125000 0.500000
vt 0.125000 0.750000
vt 0.875000 0.500000
vt 0.875000 0.750000
s 0
usemtl Material.001
f 81/89/62 82/90/62 84/91/62 83/92/62
f 83/92/63 84/91/63 88/93/63 87/94/63
f 87/94/64 88/93/64 86/95/64 85/96/64
f 85/96/65 86/95/65 82/97/65 81/98/65
f 83/99/66 87/94/66 85/96/66 81/100/66
f 88/93/67 84/101/67 82/102/67 86/95/67
o Cube.008
v -39.224873 -2.397736 85.052658
v -39.224873 64.711075 85.052658
v -39.224873 -2.397736 63.452896
v -39.224873 64.711075 63.452896
v -16.719929 -2.397736 85.052658
v -16.719929 64.711075 85.052658
v -16.719929 -2.397736 63.452896
v -16.719929 64.711075 63.452896
vn -1.0000 -0.0000 -0.0000
vn -0.0000 -0.0000 -1.0000
vn 1.0000 -0.0000 -0.0000
vn -0.0000 -0.0000 1.0000
vn -0.0000 -1.0000 -0.0000
vn -0.0000 1.0000 -0.0000
vt 0.375000 0.000000
vt 0.625000 0.000000
vt 0.625000 0.250000
vt 0.375000 0.250000
vt 0.625000 0.500000
vt 0.375000 0.500000
vt 0.625000 0.750000
vt 0.375000 0.750000
vt 0.625000 1.000000
vt 0.375000 1.000000
vt 0.125000 0.500000
vt 0.125000 0.750000
vt 0.875000 0.500000
vt 0.875000 0.750000
s 0
usemtl Material.001
f 89/103/68 90/104/68 92/105/68 91/106/68
f 91/106/69 92/105/69 96/107/69 95/108/69
f 95/108/70 96/107/70 94/109/70 93/110/70
f 93/110/71 94/109/71 90/111/71 89/112/71
f 91/113/72 95/108/72 93/110/72 89/114/72
f 96/107/73 92/115/73 90/116/73 94/109/73
o Cube.009
v -77.120918 2.536171 38.457291
v -77.120918 69.644981 38.457291
v -77.120918 2.536171 16.857523
v -77.120918 69.644981 16.857523
v -54.615974 2.536171 38.457291
v -54.615974 69.644981 38.457291
v -54.615974 2.536171 16.857523
v -54.615974 69.644981 16.857523
vn -1.0000 -0.0000 -0.0000
vn -0.0000 -0.0000 -1.0000
vn 1.0000 -0.0000 -0.0000
vn -0.0000 -0.0000 1.0000
vn -0.0000 -1.0000 -0.0000
vn -0.0000 1.0000 -0.0000
vt 0.375000 0.000000
vt 0.625000 0.000000
vt 0.625000 0.250000
vt 0.375000 0.250000
vt 0.625000 0.500000
vt 0.375000 0.500000
vt 0.625000 0.750000
vt 0.375000 0.750000
vt 0.625000 1.000000
vt 0.375000 1.000000
vt 0.125000 0.500000
vt 0.125000 0.750000
vt 0.875000 0.500000
vt 0.875000 0.750000
s 0
usemtl Material.001
f 97/117/74 98/118/74 100/119/74 99/120/74
f 99/120/75 100/119/75 104/121/75 103/122/75
f 103/122/76 104/121/76 102/123/76 101/124/76
f 101/124/77 102/123/77 98/125/77 97/126/77
f 99/127/78 103/122/78 101/124/78 97/128/78
f 104/121/79 100/129/79 98/130/79 102/123/79
o Cube.010
v -75.592026 -10.584684 -0.840380
v -75.592026 56.524124 -0.840380
v -75.592026 -10.584684 -22.440145
v -75.592026 56.524124 -22.440145
v -53.087082 -10.584684 -0.840380
v -53.087082 56.524124 -0.840380
v -53.087082 -10.584684 -22.440145
v -53.087082 56.524124 -22.440145
vn -1.0000 -0.0000 -0.0000
vn -0.0000 -0.0000 -1.0000
vn 1.0000 -0.0000 -0.0000
vn -0.0000 -0.0000 1.0000
vn -0.0000 -1.0000 -0.0000
vn -0.0000 1.0000 -0.0000
vt 0.375000 0.000000
vt 0.625000 0.000000
vt 0.625000 0.250000
vt 0.375000 0.250000
vt 0.625000 0.500000
vt 0.375000 0.500000
vt 0.625000 0.750000
vt 0.375000 0.750000
vt 0.625000 1.000000
vt 0.375000 1.000000
vt 0.125000 0.500000
vt 0.125000 0.750000
vt 0.875000 0.500000
vt 0.875000 0.750000
s 0
usemtl Material.001
f 105/131/80 106/132/80 108/133/80 107/134/80
f 107/134/81 108/133/81 112/135/81 111/136/81
f 111/136/82 112/135/82 110/137/82 109/138/82
f 109/138/83 110/137/83 106/139/83 105/140/83
f 107/141/84 111/136/84 109/138/84 105/142/84
f 112/135/85 108/143/85 106/144/85 110/137/85
